<?xml version="1.0" encoding="UTF-8"?>
<svg width="286px" height="286px" viewBox="0 0 286 286" version="1.1" xmlns="http://www.w3.org/2000/svg" xmlns:xlink="http://www.w3.org/1999/xlink">
    <!-- Generator: Sketch 53.2 (72643) - https://sketchapp.com -->
    <title>Baskin-Robbins-Logo-small286x286</title>
    <desc>Created with Sketch.</desc>
    <g id="Baskin-Robbins-Logo-small286x286" stroke="none" stroke-width="1" fill="none" fill-rule="evenodd" style="box-shadow: 0 0px 20px 0 rgba(0,0,0,0.1);">
        <g id="Baskin-Robbins" transform="translate(1.000000, 0.000000)" fill-rule="nonzero">
            <path d="M285,142.49932 C285,221.200485 221.201845,285 142.50068,285 C63.7995152,285 0,221.200485 0,142.49932 C0,63.7981551 63.7995152,0 142.50068,0 C221.201845,0 285,63.7981551 285,142.49932" id="Fill-1" fill="#FEFEFE"></path>
            <polygon id="Fill-4" fill="#D665A7" points="177 44.608403 152.898303 43 151 147.668253 165.65843 149"></polygon>
            <path d="M93,44.3010098 C93,44.3010098 129.356741,40.0290586 139.399036,63.6720523 C149.427682,87.304238 124.224345,96.7263082 124.224345,96.7263082 C124.224345,96.7263082 151.45061,101.856162 143.567742,126.113874 C135.72173,150.352672 97.4649109,147.93298 97.4649109,147.93298 L97.7310854,139.625508 C97.7310854,139.625508 118.399896,141.62638 121.629483,124.974958 C124.966904,107.769613 100.248143,107.665584 100.248143,107.665584 L99.4236839,95.2442305 C99.4236839,95.2442305 118.032712,94.4903566 118.678356,79.6952468 C119.341745,64.9406677 94.5356234,66.772662 94.5356234,66.772662 L93,44.3010098 Z" id="Fill-6" fill="#D665A7"></path>
            <polygon id="Fill-8" fill="#113B79" points="90.016009 49 63 53.6398618 82.9350345 148 94 147.474963"></polygon>
            <path d="M180.695688,49 C180.695688,49 217.307264,49.0949458 219.845499,76.7675813 C222.390572,104.563647 192.649735,113.521106 192.649735,113.521106 L205.39151,145.79997 L193.918852,148 L174,117.286385 L175.482461,105.553796 C175.482461,105.553796 192.649735,101.78716 195.194808,91.5764158 C199.296191,75.1440083 178.746882,71.9728175 178.746882,71.9728175 L180.695688,49 Z" id="Fill-10" fill="#113B79"></path>
            <path d="M86.0120095,180.799253 C82.6702054,181.21909 80.1652267,184.230842 80.5815783,187.254745 C80.996556,190.323195 84.2009501,192.583022 87.5564945,192.167236 C90.8694421,191.748749 93.4142704,188.776146 92.9800556,185.714444 C92.5829412,182.683793 89.3304542,180.390216 86.0120095,180.799253 L86.0120095,180.799253 Z M79.1525177,176.753435 C80.8536498,175.596522 82.8350972,174.798698 85.1628178,174.507107 C92.4015607,173.625586 99.0054705,178.219487 99.8972596,184.850472 C100.800041,191.485508 95.6526739,197.59136 88.4153055,198.489082 C86.1040744,198.784721 83.9618567,198.51473 82.009265,197.795204 L82.3995085,200.131978 L75.5015417,201 L71,167.847772 L77.8924706,167 L79.1525177,176.753435 Z" id="Fill-12" fill="#14458B"></path>
            <path d="M108.840303,189.284263 C108.644921,192.31664 111.354499,195.058187 114.646155,195.215609 C117.971731,195.378367 120.974384,192.898302 121.149415,189.845913 C121.358365,186.829545 118.690849,184.053312 115.353061,183.899892 C112.07633,183.743804 109.020762,186.262558 108.840303,189.284263 L108.840303,189.284263 Z M122.129041,177 L129,177.324183 L127.063812,203 L120.200994,202.683822 L120.498138,200.338499 C118.637932,201.19098 116.547066,201.62856 114.244535,201.520499 C107.054723,201.180307 101.594861,195.550465 102.023618,188.969418 C102.442876,182.352352 108.560798,177.308174 115.743826,177.644364 C118.054498,177.743086 120.078879,178.383447 121.816972,179.409359 L122.129041,177 Z" id="Fill-14" fill="#14458B"></path>
            <path d="M144,176.303976 C143.545688,176.415029 143.426765,176.444823 142.98448,176.558585 C139.741495,177.350852 137.785281,179.857667 138.719293,181.909436 L142.988488,191.413936 C145.019529,195.938663 140.965464,201.013237 133.935656,202.749454 C133.505396,202.853736 133.383801,202.875404 132.954877,203 L131,198.68519 C131.44763,198.560594 131.565218,198.530799 132.012848,198.434644 C135.254497,197.634251 137.229417,195.151813 136.284716,193.060769 L132.018193,183.565749 C129.972453,179.03696 134.039881,173.977282 141.058999,172.254609 C141.499948,172.151682 141.629561,172.120533 142.071847,172 L144,176.303976 Z" id="Fill-16" fill="#14458B"></path>
            <polygon id="Fill-18" fill="#14458B" points="159.555603 187.646466 146 200 148.252628 163 155.186328 163.449019 153.701516 183.996463 165.856094 171.576816 170.880553 175.991252 164.334196 182.734802 172 193.107695 166.421998 196.885791"></polygon>
            <path d="M182.146639,176.456052 L183,198.775319 L175.772875,199 L174.922372,176.676673 L182.146639,176.456052 Z M182.666946,170.683361 C182.752711,172.785352 180.877318,174.576036 178.491623,174.661307 C176.064475,174.726275 174.084735,173.056053 174.003259,170.959476 C173.911776,168.834476 175.757152,167.073569 178.198593,167.003186 C180.582858,166.917916 182.58547,168.554301 182.666946,170.683361 L182.666946,170.683361 Z" id="Fill-20" fill="#14458B"></path>
            <polygon id="Fill-22" fill="#14458B" points="211 177.613284 209.526688 204 193.989944 187.447384 193.707481 199.185966 187 199.088232 188.230633 173 204.004752 189.254133 204.281909 177.51555"></polygon>
            <path d="M73,215.582013 L80.6060247,215 L80.9404298,217.858389 C82.8520902,216.63725 85.072432,215.868939 87.61364,215.667683 L88.3894058,215.617369 L89,222.688549 L88.2201724,222.748382 C84.5363004,223.02443 81.6376713,226.235018 81.9422916,229.659101 L83.0010153,243.432946 L75.3936371,244 L73,215.582013 Z" id="Fill-24" fill="#14458B"></path>
            <path d="M98.5433421,236.469613 C101.496034,236.430409 103.967962,234.112103 103.931905,231.433114 C103.913208,228.786796 101.363824,226.481558 98.4218159,226.515536 C95.5091879,226.55474 92.99319,228.916171 93.0279121,231.553342 C93.0626334,234.248013 95.6293788,236.498364 98.5433421,236.469613 M98.3537079,221.000738 C104.722495,220.932783 109.928099,225.564168 109.998879,231.350784 C110.087018,237.164844 104.968218,241.925604 98.6061091,241.998786 C92.2533475,242.086344 87.0664394,237.426209 87.0010015,231.625217 C86.9182037,225.830759 91.9795793,221.084375 98.3537079,221.000738" id="Fill-26" fill="#14458B"></path>
            <path d="M125.332594,228.525141 C122.311724,228.464641 119.672741,230.799946 119.597459,233.52783 C119.526283,236.283947 122.022915,238.694541 125.043784,238.764453 C128.018116,238.834364 130.7009,236.543426 130.772076,233.781931 C130.852833,231.048669 128.294606,228.60043 125.332594,228.525141 L125.332594,228.525141 Z M119.867106,224.083087 C121.534265,223.248185 123.404001,222.826029 125.496847,222.870395 C132.012179,223.014251 137.166957,227.948374 136.995861,233.920409 C136.816553,239.888411 131.394865,244.607421 124.887745,244.454154 C122.781212,244.413821 120.968964,243.906964 119.320968,243.012906 L119.218311,245 L113,244.861522 L113.847267,215 L120.079265,215.143856 L119.867106,224.083087 Z" id="Fill-28" fill="#14458B"></path>
            <path d="M150.140767,223.03922 C147.147154,223.149233 144.705208,225.61245 144.803914,228.323867 C144.921548,231.096999 147.533862,233.352265 150.515307,233.251644 C153.469708,233.159071 155.931936,230.718662 155.850808,227.95358 C155.735877,225.235454 153.069479,222.93994 150.140767,223.03922 L150.140767,223.03922 Z M144.451008,218.903001 C146.026238,217.997406 147.855669,217.462099 149.919018,217.386969 C156.348391,217.179017 161.752852,221.800904 161.99353,227.749654 C162.205815,233.699745 157.167782,238.706677 150.732999,238.929386 C148.679116,239.004517 146.825346,238.587272 145.166284,237.789008 L145.277159,239.782657 L139.133084,240 L138,210.19856 L144.14137,210 L144.451008,218.903001 Z" id="Fill-30" fill="#14458B"></path>
            <path d="M171.093772,217.807523 L170.005373,238 L164,237.702369 L165.07782,217.530372 L171.093772,217.807523 Z M171.995702,212.641307 C171.885937,214.547237 170.182585,216.031296 168.208125,215.930265 C166.188701,215.834695 164.696946,214.199091 164.800099,212.297257 C164.895318,210.35037 166.562962,208.927749 168.586354,209.002839 C170.550234,209.109331 172.092243,210.708072 171.995702,212.641307 L171.995702,212.641307 Z" id="Fill-32" fill="#14458B"></path>
            <polygon id="Fill-34" fill="#14458B" points="198 217.629196 197.373311 242 183.03566 226.432073 182.964715 236.945666 177 236.858614 177.160285 211 191.965654 228.06497 192.036599 217.555333"></polygon>
            <path d="M213,219.521253 C212.571443,219.596473 212.444363,219.616621 212.000936,219.6999 C208.763103,220.311062 206.820404,222.728845 207.732945,224.912908 L211.954971,234.840591 C213.951747,239.586161 209.908174,244.505005 202.920133,245.814637 C202.47265,245.915378 202.35233,245.930153 201.919717,246 L200,241.470688 C200.443428,241.407556 200.554285,241.372633 201.008528,241.293383 C204.236897,240.683565 206.205283,238.295333 205.265703,236.100524 L201.063956,226.158066 C199.059068,221.423242 203.121568,216.528575 210.097442,215.198795 C210.544925,215.118203 210.661189,215.088652 211.105969,215 L213,219.521253 Z" id="Fill-36" fill="#14458B"></path>
            <path d="M221.418039,216.805681 L221.844635,216.805681 C222.344964,216.805681 222.74786,216.636241 222.74786,216.223399 C222.74786,215.858968 222.487163,215.616911 221.917051,215.616911 C221.680052,215.616911 221.512837,215.642461 221.418039,215.666667 L221.418039,216.805681 Z M221.394338,219.059505 L220.492429,219.059505 L220.492429,215.084384 C220.849243,215.011767 221.346939,214.96201 221.989467,214.96201 C222.724161,214.96201 223.055958,215.084384 223.341672,215.253824 C223.55497,215.423265 223.722185,215.739284 223.722185,216.126576 C223.722185,216.562279 223.389072,216.902505 222.913759,217.047739 L222.913759,217.096151 C223.294273,217.241385 223.507571,217.533199 223.62607,218.065725 C223.744569,218.672214 223.815668,218.914271 223.911784,219.059505 L222.937459,219.059505 C222.817643,218.914271 222.74786,218.551185 222.629361,218.089931 C222.556945,217.654228 222.319948,217.460582 221.823568,217.460582 L221.394338,217.460582 L221.394338,219.059505 Z M218.998025,216.975122 C218.998025,219.40511 221.412772,221.149269 224.157999,219.510001 C226.043449,216.815095 224.526663,213.79879 222.01185,213.79879 C220.280448,213.79879 218.998025,215.229618 218.998025,216.975122 L218.998025,216.975122 Z M226,216.975122 C226,219.230291 224.267281,221 222.01185,221 C219.781435,221 218,219.230291 218,216.975122 C218,214.769709 219.781435,213 222.01185,213 C224.267281,213 226,214.769709 226,216.975122 L226,216.975122 Z" id="Fill-38" fill="#14458B"></path>
        </g>
    </g>
</svg>